<svg xmlns="http://www.w3.org/2000/svg" viewBox="0 0 48.08 48.08"><defs><style>.cls-1{fill:#333;fill-rule:evenodd;}</style></defs><g id="Layer_2" data-name="Layer 2"><g id="Layer_1-2" data-name="Layer 1"><path class="cls-1" d="M31.18,32.61a18.7,18.7,0,1,1,1.43-1.43,1.15,1.15,0,0,1,.37.25L47.76,46.2a1.1,1.1,0,1,1-1.56,1.56L31.43,33A1.15,1.15,0,0,1,31.18,32.61ZM18.7,35.19A16.5,16.5,0,1,0,2.2,18.7,16.49,16.49,0,0,0,18.7,35.19Zm8.24-22a1.1,1.1,0,0,1-1.09,1.1H11.54a1.1,1.1,0,0,1,0-2.2H25.85A1.09,1.09,0,0,1,26.94,13.2Zm-3.29,5.5a1.11,1.11,0,0,1-1.11,1.1h-11a1.1,1.1,0,1,1,0-2.2h11A1.1,1.1,0,0,1,23.65,18.7Zm-2.2,5.5a1.11,1.11,0,0,1-1.1,1.1H11.54a1.1,1.1,0,0,1,0-2.2h8.81A1.09,1.09,0,0,1,21.45,24.2Z"/></g></g></svg>