<svg xmlns="http://www.w3.org/2000/svg" viewBox="0 0 40.2 48.08"><defs><style>.cls-1{fill:#333;}</style></defs><g id="Layer_2" data-name="Layer 2"><g id="Layer_1-2" data-name="Layer 1"><path class="cls-1" d="M39.9,13,27.15.27A1,1,0,0,0,26.47,0h-20A6.43,6.43,0,0,0,0,6.38V41.7a6.43,6.43,0,0,0,6.42,6.38H33.78A6.43,6.43,0,0,0,40.2,41.7v-28A1,1,0,0,0,39.9,13ZM27.44,3.25l9.48,9.52H27.44ZM38.3,41.7a4.52,4.52,0,0,1-4.52,4.48H6.42A4.52,4.52,0,0,1,1.9,41.7V6.38A4.52,4.52,0,0,1,6.42,1.9H25.53V13.69a1,1,0,0,0,.94,1H38.3Z"/><rect class="cls-1" x="11.41" y="33.41" width="17.38" height="1.9"/><rect class="cls-1" x="11.41" y="23.9" width="9.51" height="1.9"/></g></g></svg>