<svg xmlns="http://www.w3.org/2000/svg" viewBox="0 0 59.78 60"><defs><style>.cls-1{fill:#1f468a;}</style></defs><g id="Layer_2" data-name="Layer 2"><g id="Layer_1-2" data-name="Layer 1"><path class="cls-1" d="M35.83,31.54a56,56,0,0,0-5.33-2.8c-2-1-4.09-2-5-2.62a4.1,4.1,0,0,1-2-3.35c0-3.42,3.32-4.64,6.43-4.64a20.08,20.08,0,0,1,7,1.47l.57-1.29L38,17a23.34,23.34,0,0,0-6.75-1.64V11h-2.8v4.37c-4.74.47-7.83,3.31-7.83,7.38A6.81,6.81,0,0,0,24,28.46a56.81,56.81,0,0,0,5.32,2.8c2,1,4.1,2,5,2.62a4.09,4.09,0,0,1,2,3.35c0,3.42-3.32,4.64-6.42,4.64a20.08,20.08,0,0,1-7-1.47L21.74,43a22.71,22.71,0,0,0,6.75,1.65V49h2.8V44.61c4.74-.47,7.83-3.31,7.83-7.38A6.81,6.81,0,0,0,35.83,31.54Z"/><path class="cls-1" d="M29.89,0A30,30,0,1,0,59.78,30,29.94,29.94,0,0,0,29.89,0Zm0,57.18A27.18,27.18,0,1,1,57,30,27.16,27.16,0,0,1,29.89,57.18Z"/></g></g></svg>