<svg xmlns="http://www.w3.org/2000/svg" viewBox="0 0 37.72 48.08"><defs><style>.cls-1{fill:#f6f6f6;}</style></defs><g id="Layer_2" data-name="Layer 2"><g id="Layer_1-2" data-name="Layer 1"><path class="cls-1" d="M11.3,25h-7a.79.79,0,0,0-.72.46.78.78,0,0,0,.11.84l14.54,17a.8.8,0,0,0,1.2,0L34,26.29a.78.78,0,0,0,.12-.84A.79.79,0,0,0,33.4,25h-7V11.48a.79.79,0,0,0-.79-.79H12.1a.79.79,0,0,0-.8.79Zm.8,1.58a.79.79,0,0,0,.79-.79V12.27H24.83V25.78a.79.79,0,0,0,.8.79h6l-12.81,15-12.81-15Z"/><path class="cls-1" d="M12.1,6.74H25.63a.79.79,0,0,0,0-1.58H12.1a.79.79,0,1,0,0,1.58Z"/><path class="cls-1" d="M12.1,1.58H25.63a.79.79,0,0,0,0-1.58H12.1a.79.79,0,1,0,0,1.58Z"/><path class="cls-1" d="M.79,42.66a.79.79,0,0,0-.79.79v3.84a.79.79,0,0,0,.79.79H36.93a.79.79,0,0,0,.79-.79V43.45a.79.79,0,0,0-1.58,0v3H1.58v-3A.79.79,0,0,0,.79,42.66Z"/></g></g></svg>