<svg xmlns="http://www.w3.org/2000/svg" viewBox="0 0 228.34 50"><defs><style>.cls-1,.cls-2{fill:#1f468a;}.cls-2{font-size:19.81px;font-family:PlayfairDisplay-Bold, PlayfairDisplay Bold;font-weight:700;}.cls-3{letter-spacing:0em;}.cls-4{letter-spacing:-0.01em;}.cls-5{letter-spacing:-0.03em;}</style></defs><g id="Layer_2" data-name="Layer 2"><g id="Layer_1-2" data-name="Layer 1"><path class="cls-1" d="M.55,19.44c.22.46.45.61.88.16.63-.64,1.32-1.22,2-1.85l5.36-5.27L16.35,5c.56-.56,1.11-1.13,1.67-1.7h0a5,5,0,0,0,1-.9c.18-.18.32-.21.49,0l5.27,5.34,12.1,12.15c.5.5.54.5,1-.08h0c.11-.09.22-.16.32-.25l7.72-7.64q4.71-4.66,9.41-9.33c.25-.24.44-.35.71-.06h0c.06.07.1.16.17.23Q62.39,9,68.59,15.17l5,5.08c.31,0,.39-.22.55-.39h.07c.82-.42.85-.62.22-1.24l-.86-.91L58.42,2.56A19.57,19.57,0,0,0,56.05.29c-.37-.41-.6-.1-.85.16L46.55,9c-.55.55-1.12,1.08-1.77,1.71,0-1,0-1.85,0-2.7,0-.39-.11-.52-.51-.51-1,0-2,0-3,0-.47,0-.62.12-.61.6,0,2.07,0,4.14,0,6.21a1.1,1.1,0,0,1-.36.89c-.85.81-1.68,1.63-2.49,2.48-.32.33-.52.27-.81,0q-4.92-5-9.87-9.92c-1.5-1.5-3-3-4.53-4.49-.95-1.12-2.06-2.07-3.06-3.14-.2-.2-.32-.12-.49.05L14.15,5l-4,4c-.75.53-1.27,1.31-2,1.85-.23.25-.45.5-.69.74l-7,6.85C-.08,18.94-.08,18.94.55,19.44Z"/><path class="cls-1" d="M.35,48.52c1.09-.05,2.18.11,3.27.11,11-.06,22.06.3,33.08,0,1.08,0,2.14,0,3.21,0,10.79-.08,21.58,0,32.37-.09,10.35-.14,155.59,0,155.77,0s.31-.19.19-.41H73.9l-1.25,0-.12-.07a1.61,1.61,0,0,1-.07-.87q0-12.47,0-24.93a1.85,1.85,0,0,0-.81-1.86c0-.19-.21-.29-.34-.41q-2.44-2.36-4.88-4.72L56,5.1c-.62-.6-.62-.6-1.18.08h0c-.18.15-.37.3-.54.46l-7.61,7.55-7,7a2.41,2.41,0,0,0-1,2.24c0,8.33,0,16.67,0,25,0,.22.1.47-.09.67H36.31c-.19-.22-.1-.49-.1-.73,0-8.28,0-16.55,0-24.82a2.53,2.53,0,0,0-1-2.3h0c0-.12-.09-.17-.16-.24l-9.25-9C23.7,9,21.58,6.9,19.47,4.83c-.24-.24-.38-.27-.62,0-.54.58-1.11,1.13-1.66,1.7h0c-.14,0-.2.12-.28.2-1.16,1.16-2.31,2.33-3.47,3.48L2.68,20.84c-.16.16-.31.31-.22.56a1.63,1.63,0,0,0,0,.58c0,.05,0,.09,0,.13V46.43c0,.24,0,.48,0,.72a2.53,2.53,0,0,1,0,1H.09C0,48.38,0,48.53.35,48.52ZM54.83,30.89H48.16q0-3.16,0-6.33l.14-.23,6.45,0a.25.25,0,0,0,.11,0Q54.83,27.62,54.83,30.89Zm-6.25,1.29,6.25,0v6.44c-1.73,0-3.47,0-5.2,0a5.25,5.25,0,0,1-1.48-.06q0-3.09,0-6.18C48.17,32.17,48.37,32.18,48.58,32.18Zm7.68.45c0-.33.11-.45.45-.44.95,0,1.91,0,2.86,0h0c1,0,1.91,0,2.87,0,.33,0,.45.1.45.44,0,1.89,0,3.78,0,5.67,0,.32-.12.4-.42.4q-2.89,0-5.79,0c-.3,0-.42-.09-.42-.4Q56.28,35.46,56.26,32.63Zm.53-8.3c1.85,0,3.71,0,5.56,0,.4,0,.55.1.55.53,0,1.87,0,3.74,0,5.61,0,.34-.09.45-.43.45-1,0-2,0-2.93,0s-1.87,0-2.81,0c-.34,0-.49-.05-.49-.45,0-1.87,0-3.74,0-5.62C56.23,24.43,56.39,24.33,56.79,24.33ZM39.68,20.47l0,0v0ZM11.9,32.6c0-.31.08-.43.4-.42h5.85c.33,0,.4.14.4.43,0,1.9,0,3.81,0,5.72,0,.34-.17.39-.45.38H12.38c-.34,0-.49-.05-.49-.45C11.91,36.37,11.91,34.49,11.9,32.6Zm8,5.54c0-1.81,0-3.62,0-5.43,0-.28,0-.54.41-.53,2.08,0,4.17,0,6.26,0,0,2.18,0,4.35,0,6.52a.19.19,0,0,0-.09,0c-2.14-.1-4.28-.09-6.43,0A.89.89,0,0,1,20,38.14Zm.23-13.83H26.5l.14.14c0,1.95,0,3.91,0,5.87,0,.21.09.44-.11.62-2,0-4,0-6,0-.45,0-.62-.09-.61-.58,0-1.83,0-3.66,0-5.49C20,24.65,19.86,24.39,20.18,24.31Zm-1.61.49q0,2.84,0,5.67c0,.41-.17.45-.5.45-.95,0-1.91,0-2.86,0s-1.91,0-2.87,0c-.33,0-.45-.08-.45-.43q0-2.86,0-5.73c0-.37.15-.43.46-.42q2.87,0,5.73,0C18.44,24.33,18.57,24.43,18.57,24.8ZM2.37,48.1Z"/><path class="cls-1" d="M227.66,49.12H.68c-.72,0-.81.15-.54.88.36,0,.72,0,1.08,0h226.2c.26,0,.52,0,.78,0C228.47,49.28,228.38,49.12,227.66,49.12Z"/><text class="cls-2" transform="translate(80.19 39.81)"><tspan class="cls-3">E</tspan><tspan class="cls-4" x="9.67" y="0">c</tspan><tspan x="18.42" y="0">o </tspan><tspan class="cls-5" x="33.5" y="0">P</tspan><tspan x="43.52" y="0">anel Nepal</tspan></text><rect class="cls-1" x="72.1" y="47.92" width="156.21" height="0.65"/></g></g></svg>